<svg width="36" height="33" viewBox="0 0 36 33" fill="none" xmlns="http://www.w3.org/2000/svg">
<path d="M17.6383 33C15.2498 33 12.9646 32.5649 10.7828 31.6948C8.60097 30.8247 6.72345 29.6538 5.15024 28.1821C3.57704 26.7104 2.32536 24.9541 1.39522 22.9131C0.465072 20.8721 0 18.7344 0 16.5C0 14.2656 0.465072 12.1279 1.39522 10.0869C2.32536 8.0459 3.57704 6.28955 5.15024 4.81787C6.72345 3.34619 8.60097 2.17529 10.7828 1.30518C12.9646 0.435059 15.2498 0 17.6383 0C20.0268 0 22.312 0.435059 24.4938 1.30518C26.6756 2.17529 28.5531 3.34619 30.1263 4.81787C31.6996 6.28955 32.9512 8.0459 33.8814 10.0869C34.8115 12.1279 35.2766 14.2656 35.2766 16.5C35.2766 18.7344 34.8115 20.8721 33.8814 22.9131C32.9512 24.9541 31.6996 26.7104 30.1263 28.1821C28.5531 29.6538 26.6756 30.8247 24.4938 31.6948C22.312 32.5649 20.0268 33 17.6383 33ZM28.0077 8.25C27.8699 8.31445 27.6632 8.43262 27.3876 8.60449L26.7158 9.02344L26.0785 9.3457L25.3551 9.57129C24.5053 8.69043 23.4603 8.25 22.2201 8.25C19.533 8.25 18.1895 9.30273 18.1895 11.4082V13.3096C14.4919 13.1377 11.6555 11.8701 9.68039 9.50684C9.10623 10.0654 8.81915 10.6777 8.81915 11.3438C8.81915 12.7617 9.38183 13.8359 10.5072 14.5664C10.3694 14.5664 10.1742 14.5771 9.92154 14.5986C9.66891 14.6201 9.46795 14.6201 9.31867 14.5986C9.16939 14.5771 9.00288 14.5234 8.81915 14.4375C8.81915 15.4258 9.10049 16.2476 9.66317 16.9028C10.2258 17.5581 11.001 17.9824 11.9885 18.1758C11.7589 18.4336 11.4373 18.5625 11.0239 18.5625C10.6565 18.5625 10.3349 18.4658 10.0593 18.2725C10.0593 19.1104 10.49 19.7603 11.3512 20.2222C12.2125 20.6841 13.1828 20.9258 14.2622 20.9473C13.8488 21.5273 13.2459 21.9624 12.4536 22.2524C11.6613 22.5425 10.8172 22.6875 9.92154 22.6875C9.60001 22.6875 9.1579 22.6123 8.59522 22.4619C8.03254 22.3115 7.73972 22.2363 7.71675 22.2363C8.08422 22.9238 8.83637 23.5146 9.97322 24.0088C11.1101 24.5029 12.5512 24.75 14.2967 24.75C15.8354 24.75 17.2708 24.4976 18.6029 23.9927C19.9349 23.4878 21.0718 22.8164 22.0134 21.9785C22.955 21.1406 23.7646 20.1846 24.4421 19.1104C25.1196 18.0361 25.6249 16.9243 25.9579 15.7749C26.2909 14.6255 26.4574 13.4922 26.4574 12.375C26.4574 12.332 26.5952 12.2407 26.8708 12.1011C27.1464 11.9614 27.468 11.7734 27.8354 11.5371C28.2029 11.3008 28.4785 11.0537 28.6622 10.7959C27.422 10.7959 26.5952 10.8174 26.1818 10.8604C26.9857 10.4092 27.5943 9.53906 28.0077 8.25Z" fill="#BDBDBD"/>
</svg>
