<svg width="36" height="33" viewBox="0 0 36 33" fill="none" xmlns="http://www.w3.org/2000/svg">
<path d="M17.6383 32.3115C15.2498 32.3115 12.9646 31.8855 10.7828 31.0336C8.60097 30.1816 6.72346 29.0351 5.15025 27.5942C3.57704 26.1532 2.32536 24.4335 1.39522 22.4351C0.465073 20.4366 0 18.3435 0 16.1558C0 13.968 0.465073 11.8749 1.39522 9.87647C2.32536 7.87804 3.57704 6.15833 5.15025 4.71736C6.72346 3.27638 8.60097 2.12991 10.7828 1.27795C12.9646 0.425982 15.2498 0 17.6383 0C20.0268 0 22.312 0.425982 24.4938 1.27795C26.6756 2.12991 28.5532 3.27638 30.1264 4.71736C31.6996 6.15833 32.9512 7.87804 33.8814 9.87647C34.8115 11.8749 35.2766 13.968 35.2766 16.1558C35.2766 18.3435 34.8115 20.4366 33.8814 22.4351C32.9512 24.4335 31.6996 26.1532 30.1264 27.5942C28.5532 29.0351 26.6756 30.1816 24.4938 31.0336C22.312 31.8855 20.0268 32.3115 17.6383 32.3115ZM26.4575 10.0974C26.4575 9.55041 26.245 9.0771 25.8201 8.67741C25.3953 8.27772 24.8728 8.07788 24.2527 8.07788H11.0239C10.4268 8.07788 9.91006 8.27772 9.4737 8.67741C9.03734 9.0771 8.81915 9.55041 8.81915 10.0974V12.1168H12.7464C14.0785 10.7705 15.7091 10.0974 17.6383 10.0974C19.5675 10.0974 21.1981 10.7705 22.5302 12.1168H26.4575V10.0974ZM13.2287 16.1558C13.2287 17.2707 13.6594 18.2226 14.5206 19.0114C15.3818 19.8003 16.4211 20.1947 17.6383 20.1947C18.8555 20.1947 19.8948 19.8003 20.756 19.0114C21.6173 18.2226 22.0479 17.2707 22.0479 16.1558C22.0479 15.0408 21.6173 14.089 20.756 13.3001C19.8948 12.5112 18.8555 12.1168 17.6383 12.1168C16.4211 12.1168 15.3818 12.5112 14.5206 13.3001C13.6594 14.089 13.2287 15.0408 13.2287 16.1558ZM26.4575 14.1363H23.8393C24.1149 14.8305 24.2527 15.5036 24.2527 16.1558C24.2527 17.8387 23.6096 19.2691 22.3235 20.4471C21.0374 21.6252 19.4756 22.2142 17.6383 22.2142C15.801 22.2142 14.2393 21.6252 12.9531 20.4471C11.667 19.2691 11.0239 17.8387 11.0239 16.1558C11.0239 15.5036 11.1617 14.8305 11.4373 14.1363H8.81915V22.2142C8.81915 22.7821 9.03159 23.2607 9.45647 23.6499C9.88136 24.0391 10.4038 24.2336 11.0239 24.2336H24.2527C24.8728 24.2336 25.3953 24.0391 25.8201 23.6499C26.245 23.2607 26.4575 22.7821 26.4575 22.2142V14.1363Z" fill="#BDBDBD"/>
</svg>
